<svg width="1054.8" height="1080" viewBox="0 0 279.07 285.75" xmlns="http://www.w3.org/2000/svg"><g fill-rule="evenodd" stroke-linecap="round"><g fill="#40ffef" stroke-width=".019" transform="matrix(6.4178 0 0 6.721 -1673.667 -847.974)"><rect x="279.47" y="151.13" width="6.645" height="6.645" ry="3.323"/><rect x="279.47" y="137.14" width="6.645" height="6.645" ry="3.323"/><rect x="272.83" y="140.47" width="6.645" height="6.645" ry="3.323"/><rect x="272.83" y="147.8" width="6.645" height="6.645" ry="3.323"/><rect x="286.12" y="140.47" width="6.645" height="6.645" ry="3.323"/><rect x="286.12" y="147.8" width="6.645" height="6.645" ry="3.323"/></g><g fill="#008e92" stroke-width=".034" transform="matrix(1.763 0 0 1.8463 -107.77 -104.599)"><rect x="135.21" y="179.53" width="12.095" height="12.095" ry="6.048"/><rect transform="rotate(-11.22)" x="64.807" y="118.11" width="12.095" height="12.095" ry="6.048"/><rect x="135.15" y="76.588" width="12.095" height="12.095" ry="6.048"/></g><g fill="#aaa" stroke-width=".034" transform="matrix(1.763 0 0 1.8463 -107.77 -104.599)"><rect transform="rotate(-11.22)" x="50.721" y="104.33" width="12.095" height="12.095" ry="6.048"/><rect x="135.15" y="56.653" width="12.095" height="12.095" ry="6.048"/><rect x="134.94" y="199.33" width="12.095" height="12.095" ry="6.048"/></g><g stroke-width=".034" transform="matrix(1.763 0 0 1.8463 -107.77 -104.599)"><rect transform="scale(-1 1) rotate(-11.22)" x="-208.17" y="61.532" width="12.095" height="12.095" ry="6.048" fill="#008e92"/><rect transform="scale(-1 1) rotate(-11.22)" x="-222.26" y="47.746" width="12.095" height="12.095" ry="6.048" fill="#aaa"/><rect transform="scale(1 -1) rotate(-11.22)" x="121.47" y="-146.52" width="12.095" height="12.095" ry="6.048" fill="#008e92"/><rect transform="scale(1 -1) rotate(-11.22)" x="107.38" y="-160.31" width="12.095" height="12.095" ry="6.048" fill="#aaa"/><rect transform="rotate(168.78)" x="-157.65" y="-200.16" width="12.095" height="12.095" ry="6.048" fill="#008e92"/><rect transform="rotate(168.78)" x="-171.73" y="-213.94" width="12.095" height="12.095" ry="6.048" fill="#aaa"/></g><g fill="#008e92" stroke-width=".034" transform="matrix(1.763 0 0 1.8463 -107.77 -104.599)"><rect transform="rotate(-30)" x="49.426" y="231.6" width="12.095" height="12.095" ry="6.048"/><rect transform="rotate(-41.22)" x="-29.47" y="152.5" width="12.095" height="12.095" ry="6.048"/><rect transform="rotate(-30)" x="49.37" y="128.66" width="12.095" height="12.095" ry="6.048"/></g><g fill="#aaa" stroke-width=".034" transform="matrix(1.763 0 0 1.8463 -107.77 -104.599)"><rect transform="rotate(-41.22)" x="-43.556" y="138.72" width="12.095" height="12.095" ry="6.048"/><rect transform="rotate(-30)" x="49.37" y="108.73" width="12.095" height="12.095" ry="6.048"/><rect transform="rotate(-30)" x="49.156" y="251.4" width="12.095" height="12.095" ry="6.048"/></g><g stroke-width=".034" transform="matrix(1.763 0 0 1.8463 -107.77 -104.599)"><rect transform="scale(-1 1) rotate(18.78)" x="-134.16" y="129.3" width="12.095" height="12.095" ry="6.048" fill="#008e92"/><rect transform="scale(-1 1) rotate(18.78)" x="-148.24" y="115.52" width="12.095" height="12.095" ry="6.048" fill="#aaa"/><rect transform="scale(1 -1) rotate(18.78)" x="47.459" y="-214.29" width="12.095" height="12.095" ry="6.048" fill="#008e92"/><rect transform="scale(1 -1) rotate(18.78)" x="33.373" y="-228.08" width="12.095" height="12.095" ry="6.048" fill="#aaa"/><rect transform="rotate(138.78)" x="-63.368" y="-234.54" width="12.095" height="12.095" ry="6.048" fill="#008e92"/><rect transform="rotate(138.78)" x="-77.455" y="-248.33" width="12.095" height="12.095" ry="6.048" fill="#aaa"/></g></g></svg>