<svg width="697.05" height="277.24" viewBox="0 0 184.43 73.354" xmlns="http://www.w3.org/2000/svg"><g fill="none" stroke="#008e92" stroke-linecap="round" stroke-width=".79375"><path d="m156.6 43.074 5.4438 13.21 11.779-.014 1.4627-5.284m-13.041-18.618h15.524l4.1649 10.819h-25.242zM67 42.21l5.4438 13.808 11.779-.014 1.4627-7.3412m-13.041-17.401h15.524l4.1649 11.061h-25.242zM127.9 46.778h-24.674v15.334h24.737m-20.698-24.8v-5.2377h20.572v30.437M154.1 38.137v-5.7685h-20.526v29.744H154.1v-4.6869"/></g><g stroke-linecap="round" transform="translate(-2279.6 54.122)"><path d="M2285.5 12.304h81.026" fill="#ffa4a4" stroke="#008e92" stroke-width=".79375"/><rect x="2401.4" y="-41.056" width="1.6261" height="1.7029" ry=".85143" fill="#40ffef" fill-rule="evenodd"/><g fill-rule="evenodd"><g fill="#40ffef" stroke-width=".018689" transform="matrix(.68503 0 0 .7174 2108.35851206 -113.62536892)"><rect x="279.47" y="151.13" width="6.6453" height="6.6453" ry="3.3227"/><rect x="279.47" y="137.14" width="6.6453" height="6.6453" ry="3.3227"/><rect x="272.83" y="140.47" width="6.6453" height="6.6453" ry="3.3227"/><rect x="272.83" y="147.8" width="6.6453" height="6.6453" ry="3.3227"/><rect x="286.12" y="140.47" width="6.6453" height="6.6453" ry="3.3227"/><rect x="286.12" y="147.8" width="6.6453" height="6.6453" ry="3.3227"/></g><g fill="#008e92" stroke-width=".034016" transform="matrix(.18818 0 0 .19707 2275.49998806 -34.27907482)"><rect x="135.21" y="179.53" width="12.095" height="12.095" ry="6.0477"/><rect transform="rotate(-11.22)" x="64.807" y="118.11" width="12.095" height="12.095" ry="6.0477"/><rect x="135.15" y="76.588" width="12.095" height="12.095" ry="6.0477"/></g><g fill="#aaa" stroke-width=".034016" transform="matrix(.18818 0 0 .19707 2275.49998806 -34.27907482)"><rect transform="rotate(-11.22)" x="50.721" y="104.33" width="12.095" height="12.095" ry="6.0477"/><rect x="135.15" y="56.653" width="12.095" height="12.095" ry="6.0477"/><rect x="134.94" y="199.33" width="12.095" height="12.095" ry="6.0477"/></g><g stroke-width=".034016" transform="matrix(.18818 0 0 .19707 2275.49998806 -34.27907482)"><rect transform="scale(-1 1) rotate(-11.2202)" x="-208.17" y="61.532" width="12.095" height="12.095" ry="6.0477" fill="#008e92"/><rect transform="scale(-1 1) rotate(-11.2202)" x="-222.26" y="47.746" width="12.095" height="12.095" ry="6.0477" fill="#aaa"/><rect transform="scale(1 -1) rotate(-11.2202)" x="121.47" y="-146.52" width="12.095" height="12.095" ry="6.0477" fill="#008e92"/><rect transform="scale(1 -1) rotate(-11.2202)" x="107.38" y="-160.31" width="12.095" height="12.095" ry="6.0477" fill="#aaa"/><rect transform="rotate(168.78)" x="-157.65" y="-200.16" width="12.095" height="12.095" ry="6.0477" fill="#008e92"/><rect transform="rotate(168.78)" x="-171.73" y="-213.94" width="12.095" height="12.095" ry="6.0477" fill="#aaa"/></g><g fill="#008e92" stroke-width=".034016" transform="matrix(.18818 0 0 .19707 2275.49998806 -34.27907482)"><rect transform="rotate(-30)" x="49.426" y="231.6" width="12.095" height="12.095" ry="6.0477"/><rect transform="rotate(-41.22)" x="-29.47" y="152.5" width="12.095" height="12.095" ry="6.0477"/><rect transform="rotate(-30)" x="49.37" y="128.66" width="12.095" height="12.095" ry="6.0477"/></g><g fill="#aaa" stroke-width=".034016" transform="matrix(.18818 0 0 .19707 2275.49998806 -34.27907482)"><rect transform="rotate(-41.22)" x="-43.556" y="138.72" width="12.095" height="12.095" ry="6.0477"/><rect transform="rotate(-30)" x="49.37" y="108.73" width="12.095" height="12.095" ry="6.0477"/><rect transform="rotate(-30)" x="49.156" y="251.4" width="12.095" height="12.095" ry="6.0477"/></g><g stroke-width=".034016" transform="matrix(.18818 0 0 .19707 2275.49998806 -34.27907482)"><rect transform="scale(-1 1) rotate(18.7797)" x="-134.16" y="129.3" width="12.095" height="12.095" ry="6.0477" fill="#008e92"/><rect transform="scale(-1 1) rotate(18.7797)" x="-148.24" y="115.52" width="12.095" height="12.095" ry="6.0477" fill="#aaa"/><rect transform="scale(1 -1) rotate(18.7797)" x="47.459" y="-214.29" width="12.095" height="12.095" ry="6.0477" fill="#008e92"/><rect transform="scale(1 -1) rotate(18.7797)" x="33.373" y="-228.08" width="12.095" height="12.095" ry="6.0477" fill="#aaa"/><rect transform="rotate(138.78)" x="-63.368" y="-234.54" width="12.095" height="12.095" ry="6.0477" fill="#008e92"/><rect transform="rotate(138.78)" x="-77.455" y="-248.33" width="12.095" height="12.095" ry="6.0477" fill="#aaa"/></g></g><rect x="2308.9" y="-41.024" width="1.6261" height="1.7029" ry=".85143" fill="#40ffef" fill-rule="evenodd"/></g><g stroke="#008e92" stroke-linecap="round"><path d="M10.9 26.724V3.682l7.4742 7.7832 7.602-7.7425.067 22.996M30.1 26.699v-11.02M34.74 15.622v11.147" fill="none" stroke-width=".34396"/></g><g fill="none" stroke="#008e92" stroke-linecap="round"><path d="M42.4 15.337h8.2826M46.5394 3.903v22.848" stroke-width=".34499"/><path d="m49.5 18.905 7.0955-.1839c-.5342-1.6996-2.1438-3.1752-3.9065-2.8516-1.9483.3576-2.8861 1.8392-3.1931 3.2315-.4223 2.2331-.3922 4.704.7911 6.0562.7151.8172 1.967 1.597 2.9714 1.5935 1.1289 0 2.2926-.911 3.1589-2.204" stroke-width=".3463"/><path d="M2345.2-33.393c-.036 6.0274-1.7999 6.0104-3.8788 6.0104s-3.7642-3.2018-3.7642-5.9641c.0001-2.7622-.1774-5.4298 3.7183-5.4298 4.3981 0 3.9601-.5511 3.9247 5.3835zm.01-16.842v22.864" stroke-width=".34551" style="paint-order:markers fill stroke" transform="translate(-2279.6 54.122)"/></g><path d="M109.1 28.852h40.513" fill="#ffa4a4" stroke="#008e92" stroke-linecap="round" stroke-width=".56127"/><g fill="none" stroke="#aaa" stroke-linecap="round" stroke-width=".79375" transform="translate(-2279.6 54.122)"><path d="m2317.1-22.468 13.883 29.432 14.956-29.9M2370.4 18.835h81.026"/><circle cx="2301.9" cy="-7.8647" r="15"/></g><g fill="#a4d4ff" stroke="#aaa" stroke-linecap="round" stroke-width=".79375"><path d="M97.66.422v61.842M.42.422v61.842"/></g><path d="M103 68.708h81.026" fill="#8dffff" fill-opacity=".34118" stroke="#aaa" stroke-linecap="round" stroke-width=".79375"/><g fill="none" stroke="#aaa" stroke-linecap="round"><g stroke-width=".34396"><path d="M122.6 26.739V16.155M134.4 19.729c.105-2.4362 3.4805-3.9504 4.6775-3.9467 3.3787.069 3.353 6.2155 3.3018 10.951M124.4 15.347h8.2836m-4.108-11.364v22.708M134.4 4.325V26.65"/></g><path d="m104.3 3.958 4.5934 22.109 4.1374-10.154 4.1355 10.318 5.2219-22.278" stroke-width=".32517"/></g><g fill-rule="evenodd" stroke-linecap="round"><g fill="#40ffef" stroke-width=".018689" transform="matrix(.68503 0 0 .7174 -171.24148794 -59.50336892)"><rect x="279.47" y="151.13" width="6.6453" height="6.6453" ry="3.3227"/><rect x="279.47" y="137.14" width="6.6453" height="6.6453" ry="3.3227"/><rect x="272.83" y="140.47" width="6.6453" height="6.6453" ry="3.3227"/><rect x="272.83" y="147.8" width="6.6453" height="6.6453" ry="3.3227"/><rect x="286.12" y="140.47" width="6.6453" height="6.6453" ry="3.3227"/><rect x="286.12" y="147.8" width="6.6453" height="6.6453" ry="3.3227"/></g><g fill="#008e92" stroke-width=".034016" transform="matrix(.18818 0 0 .19707 -4.10001194 19.84292518)"><rect x="135.21" y="179.53" width="12.095" height="12.095" ry="6.0477"/><rect transform="rotate(-11.22)" x="64.807" y="118.11" width="12.095" height="12.095" ry="6.0477"/><rect x="135.15" y="76.588" width="12.095" height="12.095" ry="6.0477"/></g><g fill="#aaa" stroke-width=".034016" transform="matrix(.18818 0 0 .19707 -4.10001194 19.84292518)"><rect transform="rotate(-11.22)" x="50.721" y="104.33" width="12.095" height="12.095" ry="6.0477"/><rect x="135.15" y="56.653" width="12.095" height="12.095" ry="6.0477"/><rect x="134.94" y="199.33" width="12.095" height="12.095" ry="6.0477"/></g><g stroke-width=".034016" transform="matrix(.18818 0 0 .19707 -4.10001194 19.84292518)"><rect transform="scale(-1 1) rotate(-11.2202)" x="-208.17" y="61.532" width="12.095" height="12.095" ry="6.0477" fill="#008e92"/><rect transform="scale(-1 1) rotate(-11.2202)" x="-222.26" y="47.746" width="12.095" height="12.095" ry="6.0477" fill="#aaa"/><rect transform="scale(1 -1) rotate(-11.2202)" x="121.47" y="-146.52" width="12.095" height="12.095" ry="6.0477" fill="#008e92"/><rect transform="scale(1 -1) rotate(-11.2202)" x="107.38" y="-160.31" width="12.095" height="12.095" ry="6.0477" fill="#aaa"/><rect transform="rotate(168.78)" x="-157.65" y="-200.16" width="12.095" height="12.095" ry="6.0477" fill="#008e92"/><rect transform="rotate(168.78)" x="-171.73" y="-213.94" width="12.095" height="12.095" ry="6.0477" fill="#aaa"/></g><g fill="#008e92" stroke-width=".034016" transform="matrix(.18818 0 0 .19707 -4.10001194 19.84292518)"><rect transform="rotate(-30)" x="49.426" y="231.6" width="12.095" height="12.095" ry="6.0477"/><rect transform="rotate(-41.22)" x="-29.47" y="152.5" width="12.095" height="12.095" ry="6.0477"/><rect transform="rotate(-30)" x="49.37" y="128.66" width="12.095" height="12.095" ry="6.0477"/></g><g fill="#aaa" stroke-width=".034016" transform="matrix(.18818 0 0 .19707 -4.10001194 19.84292518)"><rect transform="rotate(-41.22)" x="-43.556" y="138.72" width="12.095" height="12.095" ry="6.0477"/><rect transform="rotate(-30)" x="49.37" y="108.73" width="12.095" height="12.095" ry="6.0477"/><rect transform="rotate(-30)" x="49.156" y="251.4" width="12.095" height="12.095" ry="6.0477"/></g><g stroke-width=".034016" transform="matrix(.18818 0 0 .19707 -4.10001194 19.84292518)"><rect transform="scale(-1 1) rotate(18.7797)" x="-134.16" y="129.3" width="12.095" height="12.095" ry="6.0477" fill="#008e92"/><rect transform="scale(-1 1) rotate(18.7797)" x="-148.24" y="115.52" width="12.095" height="12.095" ry="6.0477" fill="#aaa"/><rect transform="scale(1 -1) rotate(18.7797)" x="47.459" y="-214.29" width="12.095" height="12.095" ry="6.0477" fill="#008e92"/><rect transform="scale(1 -1) rotate(18.7797)" x="33.373" y="-228.08" width="12.095" height="12.095" ry="6.0477" fill="#aaa"/><rect transform="rotate(138.78)" x="-63.368" y="-234.54" width="12.095" height="12.095" ry="6.0477" fill="#008e92"/><rect transform="rotate(138.78)" x="-77.455" y="-248.33" width="12.095" height="12.095" ry="6.0477" fill="#aaa"/></g></g><path d="M34.7 20.373c-.01-2.6974 3.632-4.9783 5.1004-4.7527 2.3332.072 3.3428 2.277 3.3402 11.126m-8.4446-11.147v11.147" fill="none" stroke="#018a8e" stroke-linecap="round" stroke-linejoin="round" stroke-width=".35216"/></svg>